<svg preserveAspectRatio="none" overflow="visible" style="display: block;" width="12" height="12" viewBox="0 0 12 12" fill="none" xmlns="http://www.w3.org/2000/svg">
<g id="Img">
<path id="Vector" d="M5.10703 2.48203L7.98516 5.36016C8.15391 5.52891 8.25 5.76094 8.25 6C8.25 6.23906 8.15391 6.47109 7.98516 6.63984L5.10703 9.51797C4.95703 9.66797 4.75547 9.75 4.54453 9.75C4.10625 9.75 3.75 9.39375 3.75 8.95547V7.5H0.75C0.335156 7.5 0 7.16484 0 6.75V5.25C0 4.83516 0.335156 4.5 0.75 4.5H3.75V3.04453C3.75 2.60625 4.10625 2.25 4.54453 2.25C4.75547 2.25 4.95703 2.33437 5.10703 2.48203V2.48203M8.25 9.75H9.75C10.1648 9.75 10.5 9.41484 10.5 9V3C10.5 2.58516 10.1648 2.25 9.75 2.25H8.25C7.83516 2.25 7.5 1.91484 7.5 1.5Cnan nan 7.83516 0.75 8.25 0.75H9.75C10.9922 0.75 12 1.75781 12 3V9C12 10.2422 10.9922 11.25 9.75 11.25H8.25C7.83516 11.25 7.5 10.9148 7.5 10.5Cnan nan 7.83516 9.75 8.25 9.75V9.75" fill="#10B981"/>
</g>
</svg>
